<svg width="102" height="69" viewBox="0 0 102 69" fill="none" xmlns="http://www.w3.org/2000/svg">
<path d="M80.06 24.35C81.56 15.79 64.85 -1.24 47.27 0.0700008C31.65 1.24 17.04 17.76 19.62 25.76C11.38 23.84 -0.099992 35.22 7.99715e-06 47.34C0.100008 58.75 11.36 67.89 19.19 68.25C19.84 68.28 20.1 68.28 21.61 68.25L72 68.08C72.39 68.1 77.62 67.99 77.92 67.97C88.59 67.36 101.04 60.07 101.7 47.63C102.36 35 89.53 23.74 80.07 24.35H80.06ZM66.85 40.87C66.85 41.93 65.99 42.8 64.93 42.8L55.16 42.83L54.97 57.04C54.96 58.09 54.1 58.94 53.04 58.94H47.71C46.64 58.94 45.78 58.08 45.78 57.01V42.91H34.89C33.82 42.91 32.96 42.05 32.96 40.98V40C32.96 39.51 33.14 39.04 33.48 38.69L48.39 22.66C49.15 21.84 50.44 21.84 51.21 22.66L66.33 38.7C66.67 39.06 66.86 39.53 66.86 40.02V40.88L66.85 40.87Z" fill="currentColor"/>
<path d="M66.85 40.87C66.85 41.93 65.99 42.8 64.93 42.8L55.16 42.83L54.97 57.04C54.96 58.09 54.1 58.94 53.04 58.94H47.71C46.64 58.94 45.78 58.08 45.78 57.01V42.91H34.89C33.82 42.91 32.96 42.05 32.96 40.98V40C32.96 39.51 33.14 39.04 33.48 38.69L48.39 22.66C49.15 21.84 50.44 21.84 51.21 22.66L66.33 38.7C66.67 39.06 66.86 39.53 66.86 40.02V40.88L66.85 40.87Z" fill="white"/>
</svg>
