<?xml version="1.0" encoding="UTF-8"?>
<svg id="Layer_2" xmlns="http://www.w3.org/2000/svg" xmlns:xlink="http://www.w3.org/1999/xlink" version="1.1" viewBox="0 0 30 30">
  <!-- Generator: Adobe Illustrator 29.1.0, SVG Export Plug-In . SVG Version: 2.1.0 Build 142)  -->
  <defs>
    <style>
      .st0 {
        fill: none;
      }

      .st1 {
        clip-path: url(#clippath);
      }
    </style>
    <clipPath id="clippath">
      <rect fill="currentColor" class="st0" x="2.5" y="2.4" width="25" height="25"/>
    </clipPath>
  </defs>
  <g class="st1">
    <g>
      <path fill="currentColor" d="M25.2,2.4H4.8c-1.3,0-2.4,1.1-2.4,2.4v20.3c0,1.3,1.1,2.4,2.4,2.4h20.3c1.3,0,2.4-1.1,2.4-2.4V4.7c0-1.3-1.1-2.4-2.4-2.4h.1ZM25,24.9H5.2v-4h19.8v4ZM25,19H5.2V5.1h19.8v13.9Z"/>
      <path fill="currentColor" d="M18.8,12s-.2-.5-.7-.5-.7.2-.7.2l-3.7,4.7-2.5-3.2s-.2-.2-.7-.2-.7.2-.7.2l-4.5,6,19.6.2-6-7.4h0ZM8,19l2.4-3,2.4,3h-4.8ZM18.1,14.3l3.5,4.7h-7.3l3.7-4.7h.1Z"/>
      <path fill="currentColor" d="M9.3,6.3c-1.6,0-2.9,1.3-2.9,2.9s1.3,2.9,2.9,2.9,2.9-1.3,2.9-2.9-1.3-2.9-2.9-2.9ZM9.2,10.1c-.4,0-.8-.3-.8-.8s.3-.8.8-.8.8.3.8.8-.3.8-.8.8Z"/>
    </g>
  </g>
</svg>