<svg width="884" height="241" viewBox="0 0 884 241" fill="none" xmlns="http://www.w3.org/2000/svg">
<path fill="currentColor" fill-rule="evenodd" clip-rule="evenodd" d="M101.55 51.18C96.786 52.232 94.198 54.38 92.305 58.854C89.436 65.635 92.479 70.223 102.5 74.227C107.538 76.239 108.5 77.014 108.5 79.062C108.5 81.257 108.032 81.53 103.802 81.803C100.956 81.986 97.921 81.493 96.102 80.553C94.45 79.699 92.852 79 92.55 79C92.247 79 92 80.967 92 83.37C92 87.694 92.048 87.753 96.483 88.995C98.949 89.686 103.523 90.038 106.648 89.779C111.621 89.367 112.745 88.854 115.665 85.669C118.271 82.825 119 81.164 119 78.07C119 72.717 115.802 69.216 108.514 66.595C101.629 64.118 99.508 61.619 102.441 59.441C105.112 57.458 108.366 57.636 113.04 60.02L117 62.041V57.496C117 53.694 116.632 52.815 114.75 52.122C110.763 50.655 105.599 50.286 101.55 51.18ZM155 69.5V89H159.5H164V69.5V50H159.5H155V69.5ZM518.406 51.384C517.02 54.995 518.376 56.5 523.014 56.5C527.332 56.5 527.5 56.388 527.5 53.5C527.5 50.684 527.238 50.481 523.241 50.192C520.169 49.97 518.821 50.302 518.406 51.384ZM534 69.5V89H538.5H543V69.5V50H538.5H534V69.5ZM342 69.872V89L352.75 88.998C365.043 88.997 369.035 87.634 372.664 82.2C377.004 75.703 376.632 63.616 371.908 57.611C368.275 52.991 364.398 51.694 352.75 51.2L342 50.743V69.872ZM487 69.97V89H491.5H496V82.044V75.088L503.25 74.794L510.5 74.5V71V67.5L503.25 67.206L496 66.912V62.956V59H504.56H513.121L512.81 55.25L512.5 51.5L499.75 51.22L487 50.94V69.97ZM233 56.383C233 58.926 232.503 59.897 231 60.29C229.544 60.671 229 61.654 229 63.906C229 66.333 229.431 67 231 67C232.834 67 233 67.667 233 75.05C233 87.505 235.407 90.572 244.595 89.82C248.328 89.514 248.514 89.333 248.813 85.702C249.113 82.073 249.002 81.918 246.313 82.202L243.5 82.5L243.208 74.75L242.916 67H246.021C248.922 67 249.106 66.786 248.813 63.75C248.552 61.042 248.041 60.447 245.75 60.184C243.345 59.907 243 59.436 243 56.434V53H238H233V56.383ZM644.2 56.2C642.467 57.933 642.467 175.067 644.2 176.8C645.105 177.705 659.109 178 701.091 178H756.782L760.403 188.25C762.395 193.887 765.07 201.65 766.348 205.5C768.37 211.588 769.014 212.541 771.295 212.812C773.688 213.098 774.32 212.323 778.532 203.936L783.147 194.748L795.413 206.874C802.159 213.543 808.24 219 808.926 219C811.124 219 823 206.829 823 204.576C823 203.214 818.745 198.228 810.977 190.484L798.955 178.5L808.227 173.954C815.28 170.496 817.577 168.878 817.82 167.198C818.197 164.599 815.688 163.365 798.25 157.572L787 153.835V105.617C787 69.448 786.7 57.1 785.8 56.2C784.064 54.464 645.936 54.464 644.2 56.2ZM132.643 59.997C126.563 61.885 123 67.324 123 74.716C123 84.095 128.861 90 138.169 90C145.657 90 148 88.695 148 84.525C148 80.609 147.981 80.6 142.859 82.022C137.86 83.411 132.084 81.136 132.015 77.75C132.007 77.338 136.315 77 141.588 77H151.176L150.47 72.75C149.568 67.321 147.553 63.402 144.729 61.583C141.723 59.648 136.131 58.914 132.643 59.997ZM179.643 59.997C173.563 61.885 170 67.324 170 74.716C170 84.095 175.861 90 185.169 90C192.657 90 195 88.695 195 84.525C195 80.609 194.981 80.6 189.859 82.022C184.86 83.411 179.084 81.136 179.015 77.75C179.007 77.338 183.315 77 188.588 77H198.176L197.47 72.75C196.568 67.321 194.553 63.402 191.729 61.583C188.723 59.648 183.131 58.914 179.643 59.997ZM277.942 59.904C270.542 62.276 267.997 66.197 268.004 75.218C268.01 84.378 273.326 90 281.982 90C291.521 90 296.99 84.616 296.996 75.218C297.003 65.324 293.263 60.695 284.355 59.571C282.235 59.303 279.349 59.453 277.942 59.904ZM311.12 60.17C308.711 60.594 305.674 61.639 304.37 62.493C302.086 63.99 302 64.5 302 76.523V89H306.5H311V78V67H316.563H322.127L321.813 63.785C321.553 61.11 320.996 60.472 318.5 59.985C316.85 59.663 313.529 59.747 311.12 60.17ZM362.506 61.252C365.691 63.992 366.771 70.134 365.007 75.48C363.662 79.555 359.546 82 354.032 82H351V70.5V59H355.444C358.612 59 360.64 59.647 362.506 61.252ZM390.12 60.17C387.711 60.594 384.674 61.639 383.37 62.493C381.086 63.99 381 64.5 381 76.523V89H385.5H390V78V67H395.563H401.127L400.813 63.785C400.553 61.11 399.996 60.472 397.5 59.985C395.85 59.663 392.529 59.747 390.12 60.17ZM412.942 59.904C405.542 62.276 402.997 66.197 403.004 75.218C403.01 84.378 408.326 90 416.982 90C426.521 90 431.99 84.616 431.996 75.218C432.003 65.324 428.263 60.695 419.355 59.571C417.235 59.303 414.349 59.453 412.942 59.904ZM445.016 59.987C443.1 60.458 440.501 62.041 439.242 63.505C437.027 66.08 436.961 66.71 437.226 82.833L437.5 99.5H441.5H445.5L445.797 94.401L446.094 89.303L450.881 89.763C457.57 90.405 461.612 88.131 464.207 82.264C467.561 74.683 465.535 65.316 459.736 61.592C456.813 59.714 449.408 58.907 445.016 59.987ZM558.643 59.997C552.563 61.885 549 67.324 549 74.716C549 84.095 554.861 90 564.169 90C571.657 90 574 88.695 574 84.525C574 80.609 573.981 80.6 568.859 82.022C563.86 83.411 558.084 81.136 558.015 77.75C558.007 77.338 562.315 77 567.588 77H577.176L576.47 72.75C575.568 67.321 573.553 63.402 570.729 61.583C567.723 59.648 562.131 58.914 558.643 59.997ZM207.19 62.026C202.799 64.703 200.666 69.962 201.227 76.728C201.541 80.516 202.351 82.759 204.083 84.637C208.526 89.455 216.37 91.331 222.435 89.025C224.607 88.199 225 87.428 225 83.99C225 80.286 224.83 80.02 223.066 80.965C220.129 82.536 213.363 82.221 211.571 80.429C210.618 79.476 210 77.123 210 74.452C210 70.859 210.46 69.745 212.493 68.413C214.952 66.802 219.481 66.819 223.25 68.455C224.751 69.106 225 68.647 225 65.224C225 61.931 224.607 61.128 222.75 60.63C217.926 59.338 210.508 60.003 207.19 62.026ZM586.5 60.945C577.759 64.523 579.241 76.829 588.624 78.589C592.701 79.354 595.009 81.676 592.608 82.597C590.915 83.246 586.134 82.729 582.177 81.468C580.024 80.783 579.877 80.976 580.177 84.091C580.571 88.192 583.527 89.965 590 89.984C596.261 90.002 601.227 87.31 602.363 83.283C603.635 78.775 601.677 74.487 597.664 72.995C590.716 70.41 590 69.983 590 68.421C590 67.111 590.82 66.882 594.25 67.229C596.587 67.466 599.288 68.009 600.25 68.437C601.732 69.095 602 68.676 602 65.705C602 62.668 601.576 62.048 598.851 61.098C595.217 59.831 589.398 59.759 586.5 60.945ZM518 75V89H523H528V75V61H523H518V75ZM780 95.739V128.479L762.74 111.239C753.246 101.758 744.812 94 743.997 94C743.182 94 732.053 104.456 719.265 117.235L696.014 140.47L687.736 132.235C683.183 127.706 679.054 124 678.559 124C678.065 124 671.437 130.167 663.83 137.704L650 151.408V107.204V63H715H780V95.739ZM140.25 68.25L142.5 70.5L137.643 70.809C131.735 71.185 130.753 70.434 133.861 67.914C136.868 65.476 137.51 65.51 140.25 68.25ZM187.25 68.25L189.5 70.5L184.643 70.809C178.735 71.185 177.753 70.434 180.861 67.914C183.868 65.476 184.51 65.51 187.25 68.25ZM566.25 68.25L568.5 70.5L563.643 70.809C557.735 71.185 556.753 70.434 559.861 67.914C562.868 65.476 563.51 65.51 566.25 68.25ZM286.8 68.2C288.625 70.025 288.31 79 286.345 81.171C284.314 83.416 280.679 83.536 278.571 81.429C276.674 79.531 276.407 69.993 278.2 68.2C279.75 66.65 285.25 66.65 286.8 68.2ZM421.8 68.2C423.625 70.025 423.31 79 421.345 81.171C419.314 83.416 415.679 83.536 413.571 81.429C411.674 79.531 411.407 69.993 413.2 68.2C414.75 66.65 420.25 66.65 421.8 68.2ZM455.443 69.223C458.959 74.241 456.186 83 451.082 83C446.589 83 446 82.079 446 75.06C446 71.36 446.3 68.033 446.667 67.667C448.279 66.055 453.926 67.056 455.443 69.223ZM678.389 80.905C667.227 87.711 667.593 103.64 679.053 109.776C690.493 115.901 704.001 106.766 702.75 93.749C702.225 88.291 699.945 84.609 695.01 81.25C690.748 78.349 682.849 78.185 678.389 80.905ZM693.077 88.923C697.961 93.808 696.143 101.808 689.661 103.947C683.099 106.113 676.322 100.626 677.376 94C678.61 86.241 687.515 83.361 693.077 88.923ZM762.24 120.74L780 138.479V144.847C780 149.519 779.667 151.092 778.75 150.754C778.063 150.501 771.072 148.161 763.216 145.553C743.731 139.085 743.352 139.442 750 158C752.2 164.141 754 169.354 754 169.583C754 169.812 730.6 170 702 170H650V165.737C650 161.584 650.369 161.105 664.268 147.232L678.536 132.989L686.495 140.995C690.872 145.398 695.142 149 695.985 149C696.827 149 707.859 138.65 720.5 126C733.141 113.35 743.708 103 743.982 103C744.256 103 752.472 110.983 762.24 120.74ZM509.742 126.054C508.306 127.183 506.653 129.883 506.069 132.054C505.29 134.946 504.482 136 503.044 136C501.469 136 501.083 136.69 501.083 139.5C501.083 142.333 501.464 143 503.083 143C504.956 143 505.083 143.667 505.083 153.5V164H509.583H514.083V153.5V143H517.083C519.845 143 520.083 142.722 520.083 139.5C520.083 136.278 519.845 136 517.083 136C515.202 136 514.083 135.486 514.083 134.622C514.083 132.647 516.793 130.675 518.57 131.357C519.764 131.815 520.083 131.1 520.083 127.969C520.083 124.028 520.055 124 516.218 124C513.833 124 511.353 124.787 509.742 126.054ZM339.75 125.667C339.383 126.033 339.083 127.608 339.083 129.167C339.083 131.858 339.308 132 343.583 132C348.059 132 348.083 131.981 348.083 128.5C348.083 125.109 347.964 125 344.25 125C342.141 125 340.116 125.3 339.75 125.667ZM487.27 129.25C487.564 132.301 487.844 132.519 491.833 132.807L496.083 133.115V129.557C496.083 126.001 496.082 126 491.52 126C486.974 126 486.957 126.012 487.27 129.25ZM209.412 136.404C207.668 137.192 205.755 138.744 205.162 139.853C204.518 141.055 204.083 148.354 204.083 157.934V174H208.583H213.083V169.168V164.335L218.473 164.782C223.526 165.201 224.103 165.009 227.723 161.692L231.583 158.154V150.096C231.583 142.354 231.457 141.912 228.363 138.819C225.526 135.982 224.396 135.561 218.863 135.284C214.915 135.087 211.405 135.502 209.412 136.404ZM243.661 136.069C237.188 137.672 237.083 137.921 237.083 151.622V164H241.583H246.083V153.443V142.885L250.333 143.193L254.583 143.5L254.868 153.75L255.153 164H259.618H264.083V152.556C264.083 141.986 263.903 140.903 261.734 138.38C259.741 136.064 258.489 135.608 253.484 135.373C250.238 135.222 245.818 135.535 243.661 136.069ZM278.177 136.306C273.141 138.071 270.791 141.889 270.265 149.162C269.928 153.82 270.253 156.16 271.579 158.623C274.402 163.864 282.284 166.568 287.149 163.965C288.734 163.116 289.083 163.26 289.083 164.765C289.083 168.808 283.732 170.194 276.326 168.07L273.083 167.14V171.051C273.083 174.468 273.43 175.057 275.833 175.717C280.488 176.995 288.413 176.451 291.912 174.615C296.906 171.993 298.083 168.055 298.083 153.966C298.083 147.213 297.606 140.977 297.003 139.85C294.707 135.561 285.338 133.797 278.177 136.306ZM359.412 136.404C357.668 137.192 355.755 138.744 355.162 139.853C354.518 141.055 354.083 148.354 354.083 157.934V174H358.583H363.083V169.168V164.335L368.473 164.782C373.526 165.201 374.103 165.009 377.723 161.692L381.583 158.154V150.096C381.583 142.354 381.457 141.912 378.363 138.819C375.526 135.982 374.396 135.561 368.863 135.284C364.915 135.087 361.405 135.502 359.412 136.404ZM394.177 136.306C389.141 138.071 386.791 141.889 386.265 149.162C385.928 153.82 386.253 156.16 387.579 158.623C390.402 163.864 398.284 166.568 403.149 163.965C404.734 163.116 405.083 163.26 405.083 164.765C405.083 168.808 399.732 170.194 392.326 168.07L389.083 167.14V171.051C389.083 174.468 389.43 175.057 391.833 175.717C396.488 176.995 404.413 176.451 407.912 174.615C412.906 171.993 414.083 168.055 414.083 153.966C414.083 147.213 413.606 140.977 413.003 139.85C410.707 135.561 401.338 133.797 394.177 136.306ZM462.177 136.306C457.141 138.071 454.791 141.889 454.265 149.162C453.928 153.82 454.253 156.16 455.579 158.623C458.402 163.864 466.284 166.568 471.149 163.965C472.734 163.116 473.083 163.26 473.083 164.765C473.083 168.808 467.732 170.194 460.326 168.07L457.083 167.14V171.051C457.083 174.468 457.43 175.057 459.833 175.717C464.488 176.995 472.413 176.451 475.912 174.615C480.906 171.993 482.083 168.055 482.083 153.966C482.083 147.213 481.606 140.977 481.003 139.85C478.707 135.561 469.338 133.797 462.177 136.306ZM339.75 136.667C339.383 137.033 339.083 144.05 339.083 152.26C339.083 166.346 338.97 167.217 337.083 167.71C334.154 168.476 334.182 175 337.115 175C340.397 175 345.835 172.333 347.003 170.15C347.648 168.945 348.083 161.662 348.083 152.066V136H344.25C342.141 136 340.116 136.3 339.75 136.667ZM487.75 136.667C487.383 137.033 487.083 143.333 487.083 150.667V164H491.583H496.083V150V136H492.25C490.141 136 488.116 136.3 487.75 136.667ZM222.308 144.329C222.717 144.973 223.059 147.605 223.068 150.179C223.086 155.892 221.132 158.235 216.708 157.804L213.583 157.5L213.291 150.331C213.039 144.141 213.243 143.097 214.791 142.679C217.268 142.009 221.41 142.919 222.308 144.329ZM288.875 150.25L289.167 158H285.16C280.409 158 279.083 156.231 279.083 149.894C279.083 144.51 281.36 141.793 285.532 142.201L288.583 142.5L288.875 150.25ZM372.308 144.329C372.717 144.973 373.059 147.605 373.068 150.179C373.086 155.892 371.132 158.235 366.708 157.804L363.583 157.5L363.291 150.331C363.039 144.141 363.243 143.097 364.791 142.679C367.268 142.009 371.41 142.919 372.308 144.329ZM404.875 150.25L405.167 158H401.16C396.409 158 395.083 156.231 395.083 149.894C395.083 144.51 397.36 141.793 401.532 142.201L404.583 142.5L404.875 150.25ZM472.875 150.25L473.167 158H469.16C464.409 158 463.083 156.231 463.083 149.894C463.083 144.51 465.36 141.793 469.532 142.201L472.583 142.5L472.875 150.25ZM797.423 171.285C793.291 173.366 789.642 175.77 789.313 176.628C788.899 177.705 792.618 182.098 801.357 190.857C808.311 197.826 814 204.006 814 204.59C814 205.174 812.97 206.619 811.711 207.802L809.422 209.952L796.976 197.476C788.338 188.817 783.835 185 782.257 185C780.425 185 779.264 186.454 776.277 192.491C774.024 197.045 772.299 199.496 771.878 198.741C771.498 198.059 767.709 187.375 763.459 175C759.209 162.625 755.545 152.006 755.317 151.401C755.089 150.797 766.16 154.172 779.919 158.901L804.936 167.5L797.423 171.285ZM307.404 160.75C307.065 161.713 306.179 164.017 305.435 165.872C303.543 170.592 303.708 171.176 306.833 170.816C308.964 170.571 310.196 169.375 312.31 165.5C313.809 162.75 315.047 160.162 315.06 159.75C315.072 159.338 313.494 159 311.552 159C309.09 159 307.834 159.53 307.404 160.75ZM424.404 160.75C424.065 161.713 423.179 164.017 422.435 165.872C420.543 170.592 420.708 171.176 423.833 170.816C425.964 170.571 427.196 169.375 429.31 165.5C430.809 162.75 432.047 160.162 432.06 159.75C432.072 159.338 430.494 159 428.552 159C426.09 159 424.834 159.53 424.404 160.75Z"/>
</svg>
