<?xml version="1.0" encoding="UTF-8"?>
<svg id="Layer_3" xmlns="http://www.w3.org/2000/svg" xmlns:xlink="http://www.w3.org/1999/xlink" version="1.1" viewBox="0 0 30 30">
  <!-- Generator: Adobe Illustrator 29.1.0, SVG Export Plug-In . SVG Version: 2.1.0 Build 142)  -->
  <defs>
    <clipPath id="clippath">
      <rect x="2.4" y="1.8" width="25.2" height="25.8" fill="none"/>
    </clipPath>
  </defs>
  <g clip-path="url(#clippath)">
    <g>
      <path fill="currentColor" d="M26,18.9H4c-.9,0-1.6.7-1.6,1.6v.3c0,.9.7,1.6,1.6,1.6h22c.9,0,1.6-.7,1.6-1.6v-.3c0-.9-.7-1.6-1.6-1.6Z"/>
      <path fill="currentColor" d="M22.2,24.4H7.3c-.9,0-1.6.7-1.6,1.6s.7,1.6,1.6,1.6h14.9c.9,0,1.6-.7,1.6-1.6s-.7-1.6-1.6-1.6Z"/>
      <path fill="currentColor" d="M16.2,1.8h-3.1c-.3,0-.6.3-.6.6v9.2l-2.5-2.4c-.3-.3-.8-.3-1.1,0l-1.2,1.1c-.3.3-.3.8,0,1.1l6.5,5.6c.4.4,1.1.4,1.5,0l5.8-5.4c.3-.3.3-.7,0-.9l-1.1-1.1c-.3-.3-.8-.3-1.1,0l-2.4,2.4V2.4c0-.3-.3-.6-.6-.6h0Z"/>
    </g>
  </g>
</svg>