<?xml version="1.0" encoding="UTF-8"?>
<svg id="Layer_1" xmlns="http://www.w3.org/2000/svg" version="1.1" viewBox="0 0 38 37">
  <!-- Generator: Adobe Illustrator 29.1.0, SVG Export Plug-In . SVG Version: 2.1.0 Build 142)  -->
  <path fill="currentColor" d="M15.9,2.9c-4.3,1.1-7.1,4.6-7.6,9.5v1c0,0,3.1,0,3.1,0h3.2l.2-1.2c.4-2.8,2-4.4,4.4-4.4,1,0,1.8.3,2.4.9.7.7,1.1,1.5,1,2.9,0,1.8-.5,2.6-3.3,4.8-2.6,2.1-3.6,4.1-3.6,7.3v1.5h5.9v-1.2c.2-2.1.9-3,3.6-5.1,3.3-2.5,4.3-4.2,4.3-7.7,0-2.4-.7-4.1-2.3-5.7-1.4-1.4-3-2.2-5.3-2.7-1.6-.3-4.8-.3-6.2,0ZM17.2,27.9c-.7.3-1.4,1.1-1.7,1.8-.3.7-.2,2.1,0,2.8.6,1.2,1.7,1.9,3.1,1.9s2.6-.7,3.1-1.9c.4-.8.4-2.2,0-3-.3-.6-1.1-1.4-1.8-1.7-.7-.3-2.1-.2-2.8.1Z" fill-rule="evenodd"/>
</svg>