<svg width="46" height="45" viewBox="0 0 46 45" fill="none" xmlns="http://www.w3.org/2000/svg">
<path fill-rule="evenodd" clip-rule="evenodd" d="M36.6504 4.69107C38.2889 5.14213 39.8863 6.7812 40.3816 8.51941C40.5017 8.94094 40.5176 10.5872 40.5176 22.602C40.5176 34.788 40.5031 36.2465 40.3786 36.5827C39.9328 37.787 39.2208 38.7666 38.3283 39.4036C37.5413 39.9653 37.3655 40.0637 36.7822 40.2691C36.3699 40.4144 35.4908 40.4242 22.5605 40.4268C9.88893 40.4294 8.74142 40.4178 8.32219 40.282C6.861 39.8089 5.63669 38.691 4.87424 37.1338C4.70549 36.7891 4.70215 36.5026 4.70215 22.5C4.70215 8.5311 4.70593 8.21004 4.8731 7.86621C5.01741 7.56949 5.31097 7.0766 5.55355 6.72363C6.16289 5.83725 7.43722 4.94103 8.48145 4.66444C9.02443 4.52056 36.1243 4.54623 36.6504 4.69107ZM31.2841 10.3322L28.2459 13.3694L27.4207 12.5279C26.967 12.0652 26.5561 11.6997 26.5077 11.7158C26.4594 11.732 26.3479 12.0589 26.2599 12.4424C26.1719 12.8259 26.0428 13.377 25.973 13.667C25.9031 13.957 25.7839 14.4712 25.708 14.8096C25.6322 15.1479 25.4309 15.9983 25.2608 16.6992C25.0908 17.4001 24.8733 18.3098 24.7776 18.7207C24.6818 19.1316 24.5421 19.6998 24.4672 19.9833C24.3922 20.2669 24.3639 20.5306 24.4042 20.5694C24.4446 20.6082 24.8335 20.5489 25.2686 20.4376C25.7036 20.3262 26.5935 20.1117 27.2461 19.9608C27.8987 19.81 28.571 19.6494 28.7402 19.6037C29.1108 19.5041 29.8597 19.3264 31.1572 19.0304C31.689 18.9091 32.2427 18.7725 32.3877 18.7267C32.5327 18.6809 32.7996 18.6169 32.981 18.5844C33.1622 18.552 33.3105 18.5008 33.3105 18.4708C33.3105 18.4408 32.9254 18.0296 32.4547 17.5571L31.5988 16.6981L34.651 13.6444L37.7031 10.5908L36.1001 8.95623C35.2185 8.0572 34.4577 7.31566 34.4096 7.30828C34.3615 7.3009 32.955 8.66171 31.2841 10.3322ZM9.07559 8.89805C8.1929 9.77976 7.4707 10.5413 7.4707 10.5904C7.4707 10.6395 8.81543 12.024 10.459 13.667C12.1025 15.31 13.4473 16.679 13.4473 16.7091C13.4473 16.7392 13.0715 17.1323 12.6123 17.5827C12.1531 18.033 11.7773 18.4246 11.7773 18.4529C11.7773 18.4812 12.1629 18.5959 12.6343 18.7078C13.1056 18.8198 14.0449 19.0436 14.7217 19.2052C15.3984 19.3669 16.2488 19.5651 16.6113 19.6456C16.9739 19.7261 17.3694 19.825 17.4902 19.8654C17.6111 19.9057 18.2637 20.0632 18.9404 20.2155C19.6172 20.3677 20.2618 20.5287 20.3728 20.5733C20.6662 20.691 20.7422 20.6742 20.7422 20.4916C20.7422 20.3339 20.4882 19.242 20.1156 17.7978C20.0159 17.4111 19.9013 16.9365 19.861 16.7432C19.8207 16.5498 19.6845 15.9565 19.5583 15.4248C19.432 14.8931 19.2288 14.0229 19.1065 13.4912C18.9843 12.9595 18.8474 12.4335 18.8025 12.3225C18.7575 12.2115 18.7207 12.0236 18.7207 11.905C18.7207 11.7865 18.672 11.6895 18.6124 11.6895C18.5528 11.6895 18.1262 12.066 17.6643 12.5261L16.8246 13.3627L13.8836 10.4171C12.2661 8.79715 10.9295 7.43185 10.9132 7.38325C10.897 7.33465 10.8381 7.29492 10.7822 7.29492C10.7262 7.29492 9.95827 8.01633 9.07559 8.89805ZM24.3457 24.3135C24.3457 24.3442 24.3846 24.5123 24.432 24.6871C24.4795 24.8619 24.6397 25.519 24.7881 26.1475C24.9365 26.7759 25.1572 27.7053 25.2785 28.2129C25.3998 28.7205 25.5588 29.3928 25.6318 29.707C25.7048 30.0212 25.8006 30.4167 25.8445 30.5859C26.0571 31.4035 26.3672 32.8156 26.3672 32.966C26.3672 33.2776 26.5857 33.1394 27.4225 32.2992L28.2546 31.4636L31.2884 34.4965C32.9571 36.1645 34.3431 37.5293 34.3685 37.5293C34.394 37.5293 35.1555 36.7884 36.0609 35.8828L37.7071 34.2363L34.6529 31.1812L31.5988 28.1261L32.4722 27.2495C32.9525 26.7674 33.3278 26.3595 33.3061 26.3431C33.2643 26.3116 33.0634 26.2627 31.2451 25.8401C30.6167 25.6941 29.9641 25.5364 29.7949 25.4894C29.4544 25.3952 27.8361 25.0086 26.2793 24.6495C25.7234 24.5213 25.1697 24.3838 25.0488 24.344C24.7812 24.2559 24.3457 24.237 24.3457 24.3135ZM20.0892 24.342C19.9408 24.3883 19.1272 24.5872 18.2812 24.7839C16.359 25.2309 15.6839 25.3912 15.293 25.4935C15.023 25.5641 13.571 25.908 12.2607 26.2116C12.019 26.2676 11.8035 26.3268 11.7818 26.3431C11.7601 26.3595 12.1354 26.7674 12.6157 27.2495L13.4891 28.1261L10.4799 31.1363C8.82483 32.7919 7.4707 34.1854 7.4707 34.233C7.4707 34.3213 10.6377 37.5293 10.7248 37.5293C10.751 37.5293 12.135 36.1648 13.8001 34.497L16.8278 31.4647L17.6659 32.2997C18.1269 32.759 18.5528 33.1348 18.6124 33.1348C18.672 33.1348 18.7207 33.0377 18.7207 32.9192C18.7207 32.8006 18.7575 32.6127 18.8025 32.5017C18.8474 32.3907 18.9888 31.845 19.1164 31.2891C19.524 29.5141 19.5854 29.2521 19.9502 27.7295C20.1471 26.9077 20.3686 25.9783 20.4423 25.6641C20.5161 25.3499 20.6137 24.9713 20.6593 24.8229C20.8351 24.2503 20.7131 24.1474 20.0892 24.342Z" fill="currentColor"/>
</svg>
