<?xml version="1.0" encoding="UTF-8"?>
<svg id="Layer_2" xmlns="http://www.w3.org/2000/svg" xmlns:xlink="http://www.w3.org/1999/xlink" version="1.1" viewBox="0 0 30 30">
  <!-- Generator: Adobe Illustrator 29.1.0, SVG Export Plug-In . SVG Version: 2.1.0 Build 142)  -->
  <defs>
    <style>
      .st0 {
        fill: none;
      }

      .st2 {
        clip-path: url(#clippath);
      }
    </style>
    <clipPath id="clippath">
      <rect class="st0" x=".3" y="8.8" width="29.3" height="12.4"/>
    </clipPath>
  </defs>
  <g class="st2">
    <g>
      <path fill="currentColor" d="M.3,9h3.4l2.2,8.8,2.4-8.8h3.4v12h-2.4v-9s-2.3,9-2.3,9h-2.3l-2.2-8.8v8.8s-2.2,0-2.2,0v-12Z"/>
      <path fill="currentColor" d="M19.3,9.4c-.5-.3-1.1-.4-1.7-.4h-3.7v12h2.8v-4h1.4c.5,0,1,0,1.4-.3.9-.4,2.1-1.3,2.2-3.3.1-2.1-1.4-3.4-2.4-4ZM17.8,14.5h-1.3v-3.1h1.2s1,.2,1,1.4-.9,1.7-.9,1.7Z"/>
      <path fill="currentColor" d="M22.3,10.2l1.2,2,1.2-.8c.3-.2.7-.3,1.1-.2.3,0,.6.2.9.6v.8c0,.4-.2.7-.6.8-.2,0-.4.1-.6.1-1.2.2-1.6.2-1.6.2v2.2h1.8s1.2.2,1.4,1.4c0,1-1.4,1.4-2,1.4s-2.8-.9-2.8-.9v2.7s.8.7,3.2.7,2.7-.8,3.3-1.3c.3-.3.6-.7.7-1.1.2-1,.3-1.7-.1-2.5-.2-.5-.8-1.5-2.3-1.5,1-.3,1.5-.7,2-1.7.2-.3.2-.7.2-1v-.8c0-.4-.1-.8-.3-1.1-.4-.5-1.1-1.4-2-1.4-1.1-.1-2.1,0-3.1.4-.5.2-1.1.5-1.5,1Z"/>
      <path fill="currentColor" d="M26.9,8.8c-1.1-.1-2.1,0-3.1.4l3.1-.4Z"/>
    </g>
  </g>
</svg>