<?xml version="1.0" encoding="UTF-8"?>
<svg id="Layer_2" xmlns="http://www.w3.org/2000/svg" version="1.1" viewBox="0 0 30 21.2">
  <!-- Generator: Adobe Illustrator 29.1.0, SVG Export Plug-In . SVG Version: 2.1.0 Build 142)  -->
  <path fill="currentColor" d="M.3,4.7h3.4l2.2,8.8,2.4-8.8h3.4v12h-2.4V7.7l-2.3,9h-2.3L2.5,7.9v8.8H.3V4.7Z"/>
  <path fill="currentColor" d="M19.3,5.1c-.5-.3-1.1-.4-1.7-.4h-3.7v12h2.8v-4h1.4c.5,0,1,0,1.4-.3.9-.4,2.1-1.3,2.2-3.3.1-2.1-1.4-3.4-2.4-4ZM17.8,10.2h-1.3v-3.1h1.2s1,.2,1,1.4-.9,1.7-.9,1.7Z"/>
  <path fill="currentColor" d="M22.3,5.9l1.2,2,1.2-.8c.3-.2.7-.3,1.1-.2.3,0,.6.2.9.6v.8c0,.4-.2.7-.6.8-.2,0-.4.1-.6.1-1.2.2-1.6.2-1.6.2v2.2h1.8s1.2.2,1.4,1.4c0,1-1.4,1.4-2,1.4s-2.8-.9-2.8-.9v2.7s.8.7,3.2.7,2.7-.8,3.3-1.3c.3-.3.6-.7.7-1.1.2-1,.3-1.7-.1-2.5-.2-.5-.8-1.5-2.3-1.5,1-.3,1.5-.7,2-1.7.2-.3.2-.7.2-1v-.8c0-.4-.1-.8-.3-1.1-.4-.5-1.1-1.4-2-1.4-1.1-.1-2.1,0-3.1.4s-1.1.5-1.5,1c0,0-.1,0-.1,0Z"/>
  <path fill="currentColor" d="M26.9,4.5c-1.1-.1-2.1,0-3.1.4l3.1-.4Z"/>
</svg>