<?xml version="1.0" encoding="UTF-8"?>
<svg id="Layer_3" xmlns="http://www.w3.org/2000/svg" xmlns:xlink="http://www.w3.org/1999/xlink" version="1.1" viewBox="0 0 30 30">
  <!-- Generator: Adobe Illustrator 29.1.0, SVG Export Plug-In . SVG Version: 2.1.0 Build 142)  -->
  <defs>
    <style>
      .st0 {
        fill: none;
      }

      .st2 {
        clip-path: url(#clippath);
      }
    </style>
    <clipPath id="clippath">
      <rect class="st0" x=".4" y="8.5" width="29.2" height="13.6"/>
    </clipPath>
  </defs>
  <g class="st2">
    <g>
      <path fill="currentColor" d="M5.4,8.5H.4v13.6h3.1v-4.2h2.3c.9,0,1.9-.4,2.4-1.2.6-.8,1-1.9,1.1-3.9,0-1.7-.7-2.8-1.5-3.5-.7-.6-1.6-.9-2.6-.9ZM4.8,14.9h-1.3v-3.5h1.3c.2,0,.5,0,.7.2.4.2.8.6.8,1.6,0,.4,0,.7-.2.9-.3.5-.8.8-1.4.8Z"/>
      <path fill="currentColor" d="M14.7,8.5h-3.7v13.6h3.5c1.3,0,2.5-.4,3.5-1.2,1.2-1,2.3-2.7,2.4-5.6,0-1.2-.2-2.2-.4-3-.7-2.3-2.9-3.8-5.3-3.8ZM14.6,19.2h-.4v-7.6h.5c.7,0,1.4.3,1.8,1,.3.5.6,1.3.6,2.6,0,1.6-.4,2.5-.8,3.1-.4.6-1,.9-1.7.9h0Z"/>
      <path fill="currentColor" d="M22.2,8.5h7.4v3.1h-4.3v2.5h3.7l.2,3.1h-3.8v4.8h-3.1v-13.6Z"/>
    </g>
  </g>
</svg>