<?xml version="1.0" encoding="UTF-8"?>
<svg id="Layer_3" xmlns="http://www.w3.org/2000/svg" xmlns:xlink="http://www.w3.org/1999/xlink" version="1.1" viewBox="0 0 30 30">
  <!-- Generator: Adobe Illustrator 29.1.0, SVG Export Plug-In . SVG Version: 2.1.0 Build 142)  -->
    <g>
      <path fill="currentColor" d="M22.8,25.1H4.7c-.2,0-.3.1-.3.3v1.4c0,.2,0,.3.3.3h18.1c.2,0,.3-.1.3-.3v-1.4c0-.2-.1-.3-.3-.3Z"/>
      <path fill="currentColor" d="M25.6,8.6l-5.2-5.2c-.3-.3-.8-.3-1.1,0l-13.3,13.1c0,.1-.2.3-.2.4l-1.1,6.3c0,.5.3,1,.9.9l6.4-.8c.2,0,.3-.1.5-.2l13.3-13.3c.3-.3.3-.8,0-1.1h-.2ZM16.9,8.3l1.1,1.1-8.3,8.1-.9-1s8.1-8.2,8.1-8.2ZM6.8,21.9l.7-3.8,3.4,3.1-4,.7h0ZM12.2,20.1l-.9-1.1,8.1-8.1,1.3.9s-8.5,8.3-8.5,8.3ZM23.1,9.7l-1,1h-.2l-3.6-3.6v-.2l1-1h.5l3.3,3.3c.1.1.1.4,0,.5Z"/>
    </g>
</svg>