<?xml version="1.0" encoding="UTF-8"?>
<svg id="Layer_1" xmlns="http://www.w3.org/2000/svg" version="1.1" viewBox="0 0 38 37">
  <!-- Generator: Adobe Illustrator 29.1.0, SVG Export Plug-In . SVG Version: 2.1.0 Build 142)  -->
  <path fill="currentColor" d="M19.6,3.1c3.5.2,6.8,1.5,9.5,3.8,1.2,1,2.1,2.1,3.1,3.6.9,1.4,1.8,4,2.1,5.8.8,5.3-1.4,11-5.7,14.4-1.6,1.3-5.3,2.9-7.3,3.2-.6,0-1.6.2-2.5.2h0c-.2,0-.5,0-.7,0-3.4-.2-6.9-1.6-9.5-3.9l-.6-.5,3.4-4.7.7.7c1.8,1.7,4.4,2.7,7,2.7s4-.6,5.6-1.8c2.9-2.2,4.6-6.5,3.8-10-.9-4.4-5-7.6-9.7-7.6s-1.1,0-1.6.1c-1.3.2-3.2,1.1-4.2,1.8l1,.4c2.5,1.1,2.6,1.3,2.8,1.5.4.9.2,1-4.7,3.2l-5.1,2.3-2.2-5c-1.3-3.1-1.8-4.7-1.8-4.7l-.4-1.5,1.5.4c0,0,1.3.3,2.2.7l.9.4.2-.2c1.4-1.5,3.1-2.7,5.3-3.7,2.4-1,4-1.4,6.4-1.4h.5Z"/>
</svg>