<?xml version="1.0" encoding="UTF-8"?>
<svg xmlns="http://www.w3.org/2000/svg" width="98.93" height="98.32" viewBox="0 0 98.93 98.32">
  <g id="a" data-name="Layer 4">
    <path fill="currentColor" d="M96.74,85.53l-24.27-24.27c4.13-6.24,6.53-13.71,6.53-21.75C79,17.68,61.32,0,39.5,0S0,17.68,0,39.5s17.68,39.5,39.5,39.5c8.35,0,16.1-2.6,22.48-7.02l24.16,24.16c2.92,2.92,7.69,2.92,10.61,0s2.92-7.69,0-10.61ZM11,39.25c0-15.88,12.87-28.75,28.75-28.75s28.75,12.87,28.75,28.75-12.87,28.75-28.75,28.75-28.75-12.87-28.75-28.75Z"/>
  </g>
  <g id="b" data-name="Layer 5">
    <rect fill="currentColor" x="21" y="36" width="38" height="9"/>
  </g>
</svg>